<?xml version="1.0" encoding="utf-8"?>
<!-- Generator: Adobe Illustrator 19.2.1, SVG Export Plug-In . SVG Version: 6.00 Build 0)  -->
<!DOCTYPE svg PUBLIC "-//W3C//DTD SVG 1.1//EN" "http://www.w3.org/Graphics/SVG/1.1/DTD/svg11.dtd">
<svg version="1.1" id="Calque_1" xmlns="http://www.w3.org/2000/svg" xmlns:xlink="http://www.w3.org/1999/xlink" x="0px" y="0px"
	 viewBox="0 0 960 171.4" style="enable-background:new 0 0 960 171.4;" xml:space="preserve">
<style type="text/css">
	.st0{fill:#FFE6B7;}
	.st1{fill:#F40026;}
	.st2{enable-background:new    ;}
</style>
<g>
	<path class="st0" d="M106.8,122c5.7,2.5,12,2.9,19.6,1.6c7.6-1.6,15.2-4.1,23.1-7.9c7.9-3.8,15.2-8.9,22.5-14.6
		s13.3-11.7,18.4-18.1c5.1-6.3,8.6-12.4,10.5-18.4s1.3-11.4-1.6-15.8c-3.5-5.1-8.6-8.9-15.5-11.1c-7-2.2-14.9-3.2-24.1-3.2
		c-9.2,0-19,1.3-29.5,3.5c-10.5,2.2-20.9,5.4-31.4,9.2C88.4,51,78.3,55.8,68.8,60.8c-9.5,5.1-18.1,10.8-25.3,16.8
		c-7.3,6-13.3,12.4-17.4,19c-4.4,6.7-6.3,13.3-6,20c0,4.1-1,7-2.9,8.6c-2.2,1.6-4.4,2.2-7,1.6c-2.5-0.3-4.8-1.6-7-3.8
		S0,118.2,0,114.7c0-10.5,2.9-20,8.6-29.1c5.7-8.9,13.3-17.1,22.5-24.7c9.5-7.3,20.3-13.9,32.3-19.6S88.1,31,101.1,27.2
		c13-3.8,26-6.3,39-7.9c13-1.6,24.7-1.9,35.5-1c10.8,1,20.3,2.9,28.2,6.3s13.3,7.9,16.2,13.9c2.5,5.1,3.5,10.5,2.9,16.5
		c-0.6,5.7-2.2,11.7-5.1,18.1c-2.9,6.3-6.7,12.4-11.4,18.4c-4.8,6-10.5,11.7-16.5,17.4c-6.3,5.4-13,10.5-20.3,14.9
		c-7.3,4.4-14.9,8.2-22.8,11.1c-7.9,2.9-15.8,5.1-23.8,6c-7.9,1-15.8,1-23.4-0.3c-3.5-0.6-6-1.6-7.6-3.2c-1.6-1.6-2.5-3.2-2.9-5.1
		s0-3.8,1-5.7s2.2-3.5,4.1-4.8c1.6-1.3,3.8-1.9,6-2.5C101.7,120.4,104.2,120.7,106.8,122L106.8,122z M133.7,50.1
		c2.9-2.2,5.7-3.5,8.9-3.8c2.9-0.3,5.4,0,7.3,1c1.9,1,2.9,2.5,2.5,4.4c0,1.9-1.6,4.1-4.8,6.7c-2.2,1.6-6,4.8-11.1,9.2
		c-5.1,4.4-11.1,9.8-17.7,16.2c-6.7,6.3-13.3,13-20.3,20.3c-7,7.3-13.3,14.3-19,21.2s-10.5,13.3-13.9,19.3c-3.5,6-5.1,10.8-4.8,14.6
		c0,1.6-0.3,2.9-1.6,3.8c-1.3,1-2.5,1.6-4.4,1.6c-1.9,0.3-3.8,0-5.7-0.3c-1.9-0.6-3.8-1.3-5.4-2.9c-1.6-1.3-2.5-3.2-3.2-5.1
		c-0.6-2.2-0.3-5.1,0.6-8.2c2.2-7,6.3-14.6,12.7-22.8c6.3-8.2,13.6-16.5,22.2-25S93.8,83,103.9,74.8
		C113.7,65.6,123.9,57.7,133.7,50.1L133.7,50.1z"/>
	<path class="st0" d="M259.8,65.9c3.5-2.9,7.3-4.4,11.1-5.1s6.7-0.6,9.2,0.3c2.5,1,3.8,2.2,4.4,4.1c0.3,1.9-1,4.1-3.8,6
		c-5.7,4.1-10.5,8.6-15.2,13c-4.4,4.4-8.2,8.6-11.1,12.4c-2.9,3.8-5.1,7.3-6,10.1c-1,2.9-1,5.1,0.6,6c1.3,1.3,3.8,1.3,7.3,0.3
		c3.5-1,7.6-2.2,12-4.1c4.4-1.9,8.9-4.1,13.6-6.3c4.4-2.2,8.6-4.4,11.4-6c3.2-1.6,6-2.5,8.6-2.5c2.5,0,4.1,0.6,5.1,1.9s1,2.9,0,5.1
		c-1,2.2-3.5,4.4-7,6.7c-2.5,1.6-5.7,3.5-9.5,5.7c-3.8,2.2-7.6,4.4-12,6.7s-8.9,4.4-13.6,6.3s-9.2,3.5-13.3,4.4
		c-4.4,1-8.2,1.3-11.7,1.3c-3.5-0.3-6.3-1.3-8.6-3.5c-2.2-2.2-3.8-5.4-4.1-9.2c-0.3-3.8,0.3-8.6,2.2-13.6l-3.8,2.2
		c-2.9,1.6-5.4,2.5-7.6,2.5c-2.2,0-4.1-0.6-5.1-1.9c-1-1.3-1-2.9-0.3-5.1c1-1.9,2.9-4.1,6.3-6.7c1.3-1,3.2-1.9,5.1-3.2
		s4.1-2.5,6.3-3.8c2.2-1.3,4.4-2.9,7-4.4c2.2-1.6,4.8-2.9,7-4.4c2.2-2.5,4.4-4.8,7-7.3C253.8,70.7,256.6,68.1,259.8,65.9L259.8,65.9
		z M309.5,35.5c1,3.2,0.6,6-1,9.2c-1.6,3.2-4.4,5.4-8.2,6.7c-3.5,1.3-7,1.3-10.5,0c-3.2-1.3-5.4-3.5-6.7-6.3c-1-3.2-0.6-6,1-9.2
		c1.6-3.2,4.4-5.4,8.2-6.7c3.5-1.3,7-1.3,10.5,0C306.4,30.4,308.6,32.6,309.5,35.5z"/>
	<path class="st0" d="M337.4,83.3c1.3-0.6,2.2-1.3,3.2-2.2c1-1,1.9-1.9,2.5-2.9s1-1.6,0.6-2.5c0-0.6-0.6-1-1.9-1
		c-3.2,0-6.3,1-9.8,2.9c-3.5,1.9-7,4.4-10.5,7.6c-3.2,3.2-6.3,6.3-8.9,9.8c-2.5,3.5-4.4,6.7-5.7,9.8c-1.3,3.2-1.3,5.4-0.6,7.6
		c1,1.9,3.2,2.9,6.7,2.9c3.2,0,7.3-0.6,11.7-1.9c4.8-1.3,9.5-2.9,14.3-5.1c4.8-1.9,9.5-4.1,14.3-6c4.4-2.2,8.2-4.1,11.4-5.7
		c2.9-1.6,5.4-2.2,7.6-2.2s3.8,1,4.8,2.2c1,1.3,1,2.9,0.3,4.8c-1,1.9-2.9,4.1-6,6c-2.2,1.6-5.7,3.5-10.5,6.3
		c-4.8,2.5-9.8,5.4-15.5,7.9c-5.7,2.5-11.7,4.8-18.1,6.7c-6.3,1.9-12.4,2.9-18.1,2.9c-7.3,0-12.4-1.6-15.5-4.8
		c-3.2-3.2-5.1-7.3-5.1-12c0-4.8,1.3-10.1,3.8-15.8c2.5-5.7,6.3-11.4,10.8-16.5c4.8-5.1,10.1-9.8,16.5-13.6c6.3-3.8,13-6.3,20.3-7.3
		c4.1-0.6,7.6-0.3,10.8,0.6c3.2,1,5.4,2.5,7,4.8c1.6,2.2,2.2,4.8,2.2,7.9c0,3.2-1.3,6.3-3.8,10.1c-1.6,2.5-3.5,4.1-5.4,5.4
		c-1.9,1.3-4.1,1.9-6,2.2c-1.9,0.3-3.8,0.3-5.7,0c-1.6-0.3-2.9-1-3.8-1.9c-1-1-1.3-1.9-1-2.9C334.6,85.2,335.5,84.3,337.4,83.3
		L337.4,83.3z"/>
	<path class="st0" d="M415.7,59.9c4.4,0,7.9,1,10.8,2.5c2.9,1.6,4.4,4.1,5.4,7c1,3.2,1.3,6.7,0.6,10.8c-0.6,4.1-1.9,8.6-3.8,13.3
		c1.3,1,2.9,1.9,4.8,2.5c1.6,0.6,3.5,1.3,5.4,1.6c1.9,0.3,3.8,0.3,5.4,0c1.9-0.3,3.5-1,5.4-1.6c2.9-1.6,5.4-2.2,7.9-2.2
		c2.2,0.3,3.8,1,4.8,2.2s1,2.9,0,4.8c-1,1.9-2.9,3.8-6,6c-3.2,1.9-6,3.2-9.2,3.8c-3.2,0.6-6.3,1-9.2,0.6c-3.2-0.3-6-0.6-8.6-1.6
		c-2.9-1-5.1-1.9-7.3-3.2c-5.1,7.3-10.8,13.3-17.7,18.1c-6.7,4.8-13.9,7-21.5,7c-4.8,0-8.9-1-12-2.9c-3.2-1.9-5.7-4.4-7-7.6
		c-1.6-3.2-2.2-7-1.9-11.4c0.3-4.4,1.6-8.9,3.8-13.9s5.4-9.8,9.2-13.9c3.8-4.4,7.9-8.2,12.7-11.4s9.5-5.7,14.6-7.6
		C406.2,60.8,410.9,59.9,415.7,59.9L415.7,59.9z M412.2,75.4h-0.6c-1.6,0-3.5,0.6-5.7,1.6c-2.2,1-4.4,2.5-6.7,4.4s-4.4,3.8-6.7,6.3
		c-2.2,2.2-4.1,4.8-5.4,7c-2.9,4.8-4.1,9.2-4.1,12.4c0.3,3.5,1.9,5.1,5.4,5.1c1.6,0,3.2-0.3,5.1-1.3c1.9-1,3.8-1.9,6-3.5
		c1.9-1.6,4.1-3.2,6-5.1c1.9-1.9,3.8-4.1,5.4-6c-1.6-3.5-2.2-7-1.9-10.8C409,81.7,410.3,78.3,412.2,75.4L412.2,75.4z"/>
	<path class="st0" d="M541.8,107.1c-2.5,1.6-5.4,2.5-8.2,3.2c-2.9,0.6-5.7,0.6-8.6,0.6c-2.9-0.3-5.7-0.6-8.2-1.3
		c-2.9-0.6-5.1-1.6-7.3-2.5c-3.2,4.4-7,8.2-11.4,12c-4.4,3.8-9.2,6.7-13.9,8.6c-4.8,2.2-9.8,3.5-14.9,3.8c-5.1,0.3-9.5-0.6-13.9-2.9
		c-3.5-1.6-5.7-4.4-7.3-8.6c-1.6-3.8-1.9-8.6-1.3-14.3c0.6-5.7,2.9-12,6-19c3.2-7,8.2-14.6,14.6-22.5c9.5-11.7,18.4-21.5,26.6-29.1
		c8.2-7.6,15.8-13,22.8-16.8c6.7-3.8,12.7-5.4,17.7-5.7c5.1,0,8.9,1.3,12,4.4c2.5,2.9,3.5,6,2.9,10.1c-0.6,3.8-2.5,8.2-5.7,12.7
		c-3.2,4.4-7.3,9.2-12.4,14.3c-5.1,5.1-10.8,9.8-17.1,14.9c2.5,1,4.4,2.2,5.7,4.1c1.3,1.9,1.9,4.1,2.2,6.3c0.3,2.2,0,4.8-1,7.6
		c-1,2.5-1.9,5.4-3.5,7.9c2.9,1.3,5.7,1.9,8.9,2.5c3.2,0.3,6,0,8.9-1.6c2.9-1.6,5.4-2.2,7.6-2.2c2.2,0.3,3.8,1,4.8,2.2
		s1,2.9,0.3,4.8C547.2,103.3,545,105.2,541.8,107.1L541.8,107.1z M467.6,99.2c-1.6,5.1-1.3,8.9,1,11.1c1.6,1.6,3.5,2.2,5.7,2.2
		c2.2,0,4.8-0.6,7.6-1.9c2.5-1.3,5.4-2.9,7.9-4.8s5.1-4.1,7.3-6.7c-1.6-2.2-2.5-4.8-3.2-7.3c-0.6-2.5-0.6-5.4,0-7.9
		c-4.4,3.2-8.9,5.7-13.3,8.2C476.2,94.4,471.8,97,467.6,99.2L467.6,99.2z M530.1,28.8c-1-0.6-2.2-0.3-4.1,0.6s-4.1,2.5-7,4.8
		c-2.9,2.2-5.7,4.8-9.2,7.9c-3.2,3.2-6.7,6.7-10.1,10.1c-3.5,3.8-7,7.6-10.1,11.7c-3.5,4.1-6.3,8.2-9.5,12.4
		c3.5-2.5,7.6-5.4,11.7-8.6c4.1-3.2,8.2-6.3,12.4-9.5c4.1-3.2,7.9-6.3,11.4-9.5c3.5-3.2,6.7-6,9.2-8.6c2.5-2.5,4.1-5.1,5.4-7
		C531.3,31.4,531,29.8,530.1,28.8z"/>
	<path class="st0" d="M549.4,112.2c1.6,2.5,5.1,3.5,10.1,3.5c5.1-0.3,10.8-1.3,17.4-2.9c6.3-1.9,13.3-4.1,20-7c7-2.9,13-6,18.4-9.5
		c2.9-1.6,5.4-2.5,7.6-2.2c2.2,0.3,3.8,1,4.8,2.2s1,3.2,0.3,5.1c-1,1.9-2.9,4.1-6,5.7c-13.3,7.6-25,13-35.5,16.8
		c-10.5,3.8-19.3,5.7-26.6,6.7c-7.6,0.6-13.6,0-18.1-1.9c-4.8-1.9-7.9-4.8-9.5-8.6c-1.9-3.8-2.2-8.2-1.3-13.3
		c1-5.1,3.5-10.5,7.3-16.2C544,82.1,550,75.7,556.4,71c6.3-4.8,12.4-7.6,17.7-9.2c5.7-1.6,10.5-1.9,14.9-0.6s7.3,3.2,9.2,6.3
		c1.6,2.2,2.2,5.1,2.2,8.2c0,3.2-1,6.3-2.5,9.5c-1.6,3.2-4.4,6.7-7.9,9.5c-3.5,3.2-7.9,5.7-13.6,7.9c-3.2,1.3-6,1.9-8.6,1.9
		c-2.5,0-4.8-0.3-6.7-1c-1.9-0.6-3.5-1.6-4.8-2.9c-1.3-1.3-2.2-2.5-2.9-4.1c-2.5,3.2-4.1,6-5.4,8.9
		C548.1,108.4,548.1,110.6,549.4,112.2L549.4,112.2z M584.9,77c-0.6-1-1.9-1.3-3.5-1.3c-1.6,0.3-3.5,0.6-5.4,1.6s-4.1,2.2-6.3,4.1
		c-2.2,1.6-4.4,3.5-6.7,5.7c1.6,2.5,3.8,3.8,6.7,3.8c2.9,0,5.7-0.6,8.6-2.2c2.9-1.6,4.8-3.2,6.3-5.4C586.1,80.8,586.1,78.9,584.9,77
		z"/>
	<path class="st0" d="M679.9,78.9c-3.8-1-7.9-0.6-12.7,0.3c-4.4,1.3-9.2,3.2-13.3,5.7c-4.4,2.5-8.6,5.4-12.4,8.6
		c-3.8,3.2-7.3,6.3-9.8,9.5c-2.5,3.2-4.1,5.7-5.1,7.9c-1,2.2-0.3,3.8,1.3,4.4s3.5,0.3,6-0.6c2.5-1,5.4-2.2,8.2-4.1
		c2.9-1.9,6-3.8,9.5-6.3c3.2-2.2,6.3-4.8,9.5-7s5.7-4.4,8.2-6.3c2.5-1.9,4.4-3.5,6-4.1c2.9-1.6,5.7-2.9,8.9-3.2
		c3.2-0.6,5.7-0.6,8.2-0.3c2.2,0.3,3.8,1.3,4.8,2.2c1,1,0.6,2.9-1.3,4.8c-1.6,1.9-3.5,4.1-5.4,6.7c-1.9,2.5-3.5,4.8-5.1,7
		c-1.3,2.2-2.5,4.1-2.9,6c-0.6,1.6-0.3,2.9,0.6,3.2c1,0.3,2.2,0.3,4.4-0.3c2.2-0.6,4.4-1.3,7-2.5c2.5-1,5.4-2.5,8.6-3.8
		c3.2-1.6,6-2.9,8.6-4.4c2.9-1.6,5.1-2.9,7.3-3.8c2.2-1.3,3.8-1.9,4.8-2.5c2.5-1.3,4.8-2.2,7-2.2c2.2,0,3.8,0.6,5.1,1.6
		c1,1.3,1.3,2.9,0.6,4.8s-2.9,4.1-6,6.7c-1.9,1.3-5.1,3.5-9.5,6c-4.4,2.5-9.2,5.4-14.9,7.9c-5.4,2.9-11.1,5.1-16.8,7
		c-5.7,1.9-10.8,2.9-15.2,2.9c-3.8,0-6.3-1-7.9-2.5s-2.2-3.8-2.2-6.3c0-2.5,0.3-5.1,1.6-7.6c1-2.9,2.5-5.1,4.1-7
		c-3.8,2.9-7.9,6-12.4,9.5s-9.2,6.3-14.3,8.9c-5.1,2.5-9.8,4.1-14.6,5.1c-4.8,1-9.5,0-13.6-2.9c-3.5-2.2-5.7-5.1-6.7-8.2
		c-1-3.2-0.6-7,0.6-10.8c1.3-3.8,3.5-7.9,6.3-12c2.9-4.1,6.7-8.2,10.5-12c4.1-3.8,8.6-7.6,13.3-10.8c4.8-3.5,9.8-6.3,14.9-8.6
		c5.1-2.2,10.1-4.1,14.9-5.1c5.1-1,9.5-1,13.3-0.3c2.9,0.6,4.8,1.9,5.7,4.1c1,2.2,1,4.4,0.3,6.7c-0.6,2.2-1.6,4.1-3.2,5.7
		C683.1,78.9,681.5,79.5,679.9,78.9L679.9,78.9z"/>
	<path class="st0" d="M735.4,127.7c-1.6-1.9-2.5-4.4-2.5-7c0-2.9,0.3-5.4,1.3-8.2c1-2.9,2.2-5.4,3.8-7.6c1.6-2.2,2.9-4.1,4.1-5.4
		c-2.2,1.3-4.1,2.9-6,4.1s-3.8,2.5-5.7,3.5c-2.9,1.6-5.4,2.5-7.6,2.5c-2.2,0-4.1-0.6-5.1-1.9c-1-1.3-1-2.9-0.3-5.1
		c1-1.9,2.9-4.1,6.3-6.7c1.3-0.6,2.9-1.9,5.4-3.2c2.5-1.6,5.4-3.2,8.6-5.1c3.2-1.9,6.7-3.8,10.1-6c3.5-2.2,7-4.4,10.5-6.3
		c3.5-2.2,6.3-4.1,9.2-6c2.9-1.9,5.1-3.5,6.7-4.8c2.5-2.2,5.4-3.5,8.6-4.1c3.5-0.6,6.3-1,8.9-0.6c2.5,0.3,4.4,1.3,5.7,2.9
		c1.3,1.6,0.6,3.5-1.3,6c-1.3,1.6-3.2,3.8-6,6.3c-2.9,2.5-5.7,5.4-9.2,8.2s-6.7,6-10.1,9.2s-6.3,6-9.2,8.6c-2.5,2.9-4.8,5.1-6,7
		c-1.6,1.9-1.9,3.5-1,4.4c0.6,1,2.5,0.6,5.1-0.6c2.5-1.3,6.3-3.2,10.1-5.7c3.8-2.5,8.6-5.7,13.3-9.2c5.1-3.5,9.8-7.3,14.9-11.1
		c5.1-3.8,9.8-7.3,14.6-10.8c4.8-3.5,9.2-6.7,13-9.2c3.5-2.9,7.3-4.8,11.1-5.4c3.8-0.6,6.7-0.6,9.2,0.3c2.5,0.6,3.8,2.2,4.4,4.1
		c0.3,1.9-1,4.1-3.8,6c-5.7,4.1-10.5,8.6-15.2,13c-4.4,4.4-8.2,8.6-11.1,12.4c-2.9,3.8-4.8,7.3-6,10.1c-1,2.9-1,5.1,0.3,6
		c1.3,1.3,3.8,1.3,7.3,0.3c3.5-1,7.6-2.2,12-4.1s8.9-4.1,13.3-6.3c4.4-2.2,8.6-4.4,11.4-6c3.2-1.6,6-2.5,8.6-2.5
		c2.5,0,4.1,0.6,5.1,1.9c1,1.3,1,2.9,0,5.1c-1,2.2-3.5,4.4-7,6.7c-2.5,1.6-5.7,3.5-9.5,5.7c-3.8,2.2-7.6,4.4-12,6.7
		c-4.4,2.2-8.9,4.4-13.3,6.3c-4.4,1.9-8.9,3.5-13.3,4.4c-4.4,1-8.2,1.6-11.7,1.3c-3.5-0.3-6.3-1.6-8.6-3.8c-2.2-1.9-3.5-4.8-3.8-8.6
		c-0.6-3.8,0-7.9,1.3-12.4c-6,4.4-11.7,8.6-17.7,12.4c-6,3.8-11.7,6.7-16.8,8.9c-5.4,2.2-10.1,3.2-14.3,3.5
		C741.1,131.8,737.9,130.5,735.4,127.7z"/>
	<path class="st0" d="M836.8,159.4c-2.2-1.6-3.8-4.1-4.8-7.6c-0.6-3.5,0-8.6,2.2-14.6c2.2-6,6.3-13.9,12-23.4
		c5.7-9.2,14.3-20.6,25.3-33.9c9.2-10.8,17.4-20.6,25-28.5c7.6-8.2,14.3-14.9,20.3-20s11.1-8.6,15.5-10.5s7.9-2.2,10.8-0.6
		c2.5,1.3,3.5,3.5,3.5,6.7s-1.3,6.7-3.5,10.5c-2.2,4.1-5.4,8.2-9.2,13c-3.8,4.8-8.6,9.5-13.6,14.6c-5.1,5.1-10.8,9.8-16.8,14.9
		c-6,5.1-12.4,9.5-18.7,13.9c1.6,1,3.2,1.9,4.1,3.2c1.3,1.3,1.9,3.2,2.5,5.1c1,0.6,3.2,0.6,6,0.6c3.2-0.3,6.3-0.6,9.8-1.3
		c3.5-0.6,7-1.6,10.1-2.5c3.2-1,5.7-1.9,7.3-2.9c2.9-1.6,5.4-2.2,7.6-2.2c2.2,0,3.8,1,4.8,2.2c1,1.3,1,2.9,0,5.1c-1,1.9-2.9,4.1-6,6
		c-2.5,1.6-5.4,2.9-8.9,4.1c-3.5,1.3-7,2.2-10.8,2.9c-3.8,0.6-7.6,1.3-11.4,1.3c-3.8,0.3-7.6,0.3-11.1,0c-1.6,3.5-3.8,7.3-6,11.4
		c-2.5,4.1-5.1,8.2-7.9,12c-2.9,3.8-6,7.6-9.2,11.1c-3.2,3.5-6.7,6-10.1,8.2s-6.7,3.5-10.1,3.8C842.8,162.2,839.6,161.3,836.8,159.4
		z M870.7,106.5c-3.2,4.1-6,8.2-8.6,12.4c-2.9,4.1-5.1,7.6-7,11.1c-1.9,3.5-3.2,6-4.1,8.6c-1,2.2-1,3.8-0.3,4.1
		c0.6,0.3,1.9-0.3,3.8-2.2c1.9-1.9,4.4-4.1,7-7.3c2.5-3.2,5.4-6.3,7.9-10.1c2.9-3.8,5.1-7.3,7-10.8
		C873.8,110.6,871.6,108.7,870.7,106.5L870.7,106.5z"/>
</g>
<g>
	<path class="st1" d="M119.4,109.3c5.7,2.5,12,2.9,19.6,1.6c7.6-1.6,15.2-4.1,23.1-7.9c7.9-3.8,15.2-8.9,22.5-14.6
		c7.3-5.7,13.3-11.7,18.4-18.1c5.1-6.3,8.6-12.4,10.5-18.4c1.9-6,1.3-11.4-1.6-15.8c-3.5-5.1-8.6-8.9-15.5-11.1
		c-7-2.2-14.9-3.2-24.1-3.2c-9.2,0-19,1.3-29.5,3.5s-20.9,5.4-31.4,9.2s-20.6,8.6-30.1,13.6S63.4,58.9,56.1,65
		c-7.3,6-13.3,12.4-17.4,19c-4.4,6.7-6.3,13.3-6,20c0,4.1-1,7-2.9,8.6c-2.2,1.6-4.4,2.2-7,1.6c-2.5-0.3-4.8-1.6-7-3.8
		s-3.2-4.8-3.2-8.2c0-10.5,2.9-20,8.6-29.1c5.7-8.9,13.3-17.1,22.5-24.7C53.2,40.9,64,34.2,76,28.5s24.7-10.1,37.7-13.9
		s26-6.3,39-7.9s24.7-1.9,35.5-1s20.3,2.9,28.2,6.3c7.9,3.5,13.3,7.9,16.2,13.9c2.5,5.1,3.5,10.5,2.9,16.5
		c-0.6,5.7-2.2,11.7-5.1,18.1c-2.9,6.3-6.7,12.4-11.4,18.4s-10.5,11.7-16.5,17.4c-6.3,5.4-13,10.5-20.3,14.9
		c-7.3,4.4-14.9,8.2-22.8,11.1c-7.9,2.9-15.8,5.1-23.8,6s-15.8,1-23.4-0.3c-3.5-0.6-6-1.6-7.6-3.2c-1.6-1.6-2.5-3.2-2.9-5.1
		c-0.3-1.9,0-3.8,1-5.7s2.2-3.5,4.1-4.8c1.6-1.3,3.8-1.9,6-2.5C114.4,107.7,116.9,108,119.4,109.3L119.4,109.3z M146.4,37.4
		c2.9-2.2,5.7-3.5,8.9-3.8c2.9-0.3,5.4,0,7.3,1c1.9,1,2.9,2.5,2.5,4.4c0,1.9-1.6,4.1-4.8,6.7c-2.2,1.6-6,4.8-11.1,9.2
		s-11.1,9.8-17.7,16.2c-6.7,6.3-13.3,13-20.3,20.3s-13.3,14.3-19,21.2c-5.7,7-10.5,13.3-13.9,19.3c-3.5,6-5.1,10.8-4.8,14.6
		c0,1.6-0.3,2.9-1.6,3.8s-2.5,1.6-4.4,1.6c-1.9,0.3-3.8,0-5.7-0.3c-1.9-0.6-3.8-1.3-5.4-2.9c-1.6-1.3-2.5-3.2-3.2-5.1
		c-0.6-2.2-0.3-5.1,0.6-8.2c2.2-7,6.3-14.6,12.7-22.8c6.3-8.2,13.6-16.5,22.2-25s17.7-17.1,27.9-25.3
		C126.4,52.9,136.6,45,146.4,37.4L146.4,37.4z"/>
	<path class="st1" d="M272.5,53.2c3.5-2.9,7.3-4.4,11.1-5.1c3.8-0.6,6.7-0.6,9.2,0.3c2.5,1,3.8,2.2,4.4,4.1c0.3,1.9-1,4.1-3.8,6
		c-5.7,4.1-10.5,8.6-15.2,13c-4.4,4.4-8.2,8.6-11.1,12.4c-2.9,3.8-5.1,7.3-6,10.1s-1,5.1,0.6,6c1.3,1.3,3.8,1.3,7.3,0.3
		c3.5-1,7.6-2.2,12-4.1c4.4-1.9,8.9-4.1,13.6-6.3c4.4-2.2,8.6-4.4,11.4-6c3.2-1.6,6-2.5,8.6-2.5c2.5,0,4.1,0.6,5.1,1.9
		c1,1.3,1,2.9,0,5.1s-3.5,4.4-7,6.7c-2.5,1.6-5.7,3.5-9.5,5.7c-3.8,2.2-7.6,4.4-12,6.7c-4.4,2.2-8.9,4.4-13.6,6.3s-9.2,3.5-13.3,4.4
		c-4.4,1-8.2,1.3-11.7,1.3c-3.5-0.3-6.3-1.3-8.6-3.5c-2.2-2.2-3.8-5.4-4.1-9.2c-0.3-3.8,0.3-8.6,2.2-13.6l-3.8,2.2
		c-2.9,1.6-5.4,2.5-7.6,2.5c-2.2,0-4.1-0.6-5.1-1.9c-1-1.3-1-2.9-0.3-5.1c1-1.9,2.9-4.1,6.3-6.7c1.3-1,3.2-1.9,5.1-3.2
		c1.9-1.3,4.1-2.5,6.3-3.8c2.2-1.3,4.4-2.9,7-4.4c2.2-1.6,4.8-2.9,7-4.4c2.2-2.5,4.4-4.8,7-7.3C266.5,58,269.3,55.4,272.5,53.2
		L272.5,53.2z M322.2,22.8c1,3.2,0.6,6-1,9.2s-4.4,5.4-8.2,6.7c-3.5,1.3-7,1.3-10.5,0c-3.2-1.3-5.4-3.5-6.7-6.3c-1-3.2-0.6-6,1-9.2
		s4.4-5.4,8.2-6.7c3.5-1.3,7-1.3,10.5,0C319,17.7,321.3,20,322.2,22.8z"/>
	<path class="st1" d="M350.1,70.7c1.3-0.6,2.2-1.3,3.2-2.2s1.9-1.9,2.5-2.9c0.6-1,1-1.6,0.6-2.5c0-0.6-0.6-1-1.9-1
		c-3.2,0-6.3,1-9.8,2.9s-7,4.4-10.5,7.6c-3.2,3.2-6.3,6.3-8.9,9.8c-2.5,3.5-4.4,6.7-5.7,9.8c-1.3,3.2-1.3,5.4-0.6,7.6
		c1,1.9,3.2,2.9,6.7,2.9c3.2,0,7.3-0.6,11.7-1.9c4.8-1.3,9.5-2.9,14.3-5.1c4.8-1.9,9.5-4.1,14.3-6c4.4-2.2,8.2-4.1,11.4-5.7
		c2.9-1.6,5.4-2.2,7.6-2.2c2.2,0,3.8,1,4.8,2.2s1,2.9,0.3,4.8c-1,1.9-2.9,4.1-6,6c-2.2,1.6-5.7,3.5-10.5,6.3
		c-4.8,2.5-9.8,5.4-15.5,7.9c-5.7,2.5-11.7,4.8-18.1,6.7s-12.4,2.9-18.1,2.9c-7.3,0-12.4-1.6-15.5-4.8c-3.2-3.2-5.1-7.3-5.1-12
		c0-4.8,1.3-10.1,3.8-15.8c2.5-5.7,6.3-11.4,10.8-16.5c4.8-5.1,10.1-9.8,16.5-13.6c6.3-3.8,13-6.3,20.3-7.3
		c4.1-0.6,7.6-0.3,10.8,0.6c3.2,1,5.4,2.5,7,4.8s2.2,4.8,2.2,7.9c0,3.2-1.3,6.3-3.8,10.1c-1.6,2.5-3.5,4.1-5.4,5.4
		c-1.9,1.3-4.1,1.9-6,2.2c-1.9,0.3-3.8,0.3-5.7,0c-1.6-0.3-2.9-1-3.8-1.9c-1-1-1.3-1.9-1-2.9C347.2,72.6,348.2,71.6,350.1,70.7
		L350.1,70.7z"/>
	<path class="st1" d="M428.4,47.2c4.4,0,7.9,1,10.8,2.5c2.9,1.6,4.4,4.1,5.4,7c1,3.2,1.3,6.7,0.6,10.8c-0.6,4.1-1.9,8.6-3.8,13.3
		c1.3,1,2.9,1.9,4.8,2.5c1.6,0.6,3.5,1.3,5.4,1.6c1.9,0.3,3.8,0.3,5.4,0c1.9-0.3,3.5-1,5.4-1.6c2.9-1.6,5.4-2.2,7.9-2.2
		c2.2,0.3,3.8,1,4.8,2.2c1,1.3,1,2.9,0,4.8s-2.9,3.8-6,6c-3.2,1.9-6,3.2-9.2,3.8c-3.2,0.6-6.3,1-9.2,0.6c-3.2-0.3-6-0.6-8.6-1.6
		c-2.9-1-5.1-1.9-7.3-3.2c-5.1,7.3-10.8,13.3-17.7,18.1c-6.7,4.8-13.9,7-21.5,7c-4.8,0-8.9-1-12-2.9c-3.2-1.9-5.7-4.4-7-7.6
		c-1.6-3.2-2.2-7-1.9-11.4c0.3-4.4,1.6-8.9,3.8-13.9c2.2-5.1,5.4-9.8,9.2-13.9c3.8-4.4,7.9-8.2,12.7-11.4s9.5-5.7,14.6-7.6
		C418.9,48.2,423.6,47.2,428.4,47.2z M424.9,62.7h-0.6c-1.6,0-3.5,0.6-5.7,1.6s-4.4,2.5-6.7,4.4c-2.2,1.9-4.4,3.8-6.7,6.3
		c-2.2,2.2-4.1,4.8-5.4,7c-2.9,4.8-4.1,9.2-4.1,12.4c0.3,3.5,1.9,5.1,5.4,5.1c1.6,0,3.2-0.3,5.1-1.3s3.8-1.9,6-3.5
		c1.9-1.6,4.1-3.2,6-5.1c1.9-1.9,3.8-4.1,5.4-6c-1.6-3.5-2.2-7-1.9-10.8C421.7,69.1,423,65.6,424.9,62.7L424.9,62.7z"/>
	<path class="st1" d="M554.5,94.4c-2.5,1.6-5.4,2.5-8.2,3.2s-5.7,0.6-8.6,0.6c-2.9-0.3-5.7-0.6-8.2-1.3c-2.9-0.6-5.1-1.6-7.3-2.5
		c-3.2,4.4-7,8.2-11.4,12c-4.4,3.8-9.2,6.7-13.9,8.6c-4.8,2.2-9.8,3.5-14.9,3.8c-5.1,0.3-9.5-0.6-13.9-2.9c-3.5-1.6-5.7-4.4-7.3-8.6
		c-1.6-3.8-1.9-8.6-1.3-14.3c0.6-5.7,2.9-12,6-19c3.2-7,8.2-14.6,14.6-22.5c9.5-11.7,18.4-21.5,26.6-29.1c8.2-7.6,15.8-13,22.8-16.8
		c6.7-3.8,12.7-5.4,17.7-5.7c5.1,0,8.9,1.3,12,4.4c2.5,2.9,3.5,6,2.9,10.1c-0.6,3.8-2.5,8.2-5.7,12.7c-3.2,4.4-7.3,9.2-12.4,14.3
		c-5.1,5.1-10.8,9.8-17.1,14.9c2.5,1,4.4,2.2,5.7,4.1c1.3,1.9,1.9,4.1,2.2,6.3c0.3,2.2,0,4.8-1,7.6c-1,2.5-1.9,5.4-3.5,7.9
		c2.9,1.3,5.7,1.9,8.9,2.5c3.2,0.3,6,0,8.9-1.6c2.9-1.6,5.4-2.2,7.6-2.2c2.2,0.3,3.8,1,4.8,2.2c1,1.3,1,2.9,0.3,4.8
		C559.8,90.6,557.6,92.5,554.5,94.4z M480.3,86.5c-1.6,5.1-1.3,8.9,1,11.1c1.6,1.6,3.5,2.2,5.7,2.2s4.8-0.6,7.6-1.9
		c2.5-1.3,5.4-2.9,7.9-4.8c2.5-1.9,5.1-4.1,7.3-6.7c-1.6-2.2-2.5-4.8-3.2-7.3s-0.6-5.4,0-7.9c-4.4,3.2-8.9,5.7-13.3,8.2
		C488.9,81.7,484.4,84.3,480.3,86.5z M542.7,16.2c-1-0.6-2.2-0.3-4.1,0.6c-1.9,1-4.1,2.5-7,4.8c-2.9,2.2-5.7,4.8-9.2,7.9
		c-3.2,3.2-6.7,6.7-10.1,10.1c-3.5,3.8-7,7.6-10.1,11.7c-3.5,4.1-6.3,8.2-9.5,12.4c3.5-2.5,7.6-5.4,11.7-8.6
		c4.1-3.2,8.2-6.3,12.4-9.5c4.1-3.2,7.9-6.3,11.4-9.5s6.7-6,9.2-8.6c2.5-2.5,4.1-5.1,5.4-7C544,18.7,543.7,17.1,542.7,16.2z"/>
	<path class="st1" d="M562.1,99.5c1.6,2.5,5.1,3.5,10.1,3.5c5.1-0.3,10.8-1.3,17.4-2.9c6.3-1.9,13.3-4.1,20-7c7-2.9,13-6,18.4-9.5
		c2.9-1.6,5.4-2.5,7.6-2.2c2.2,0.3,3.8,1,4.8,2.2c1,1.3,1,3.2,0.3,5.1c-1,1.9-2.9,4.1-6,5.7c-13.3,7.6-25,13-35.5,16.8
		c-10.5,3.8-19.3,5.7-26.6,6.7c-7.6,0.6-13.6,0-18.1-1.9c-4.8-1.9-7.9-4.8-9.5-8.6c-1.9-3.8-2.2-8.2-1.3-13.3
		c1-5.1,3.5-10.5,7.3-16.2c5.7-8.6,11.7-14.9,18.1-19.6c6.3-4.8,12.4-7.6,17.7-9.2c5.7-1.6,10.5-1.9,14.9-0.6
		c4.4,1.3,7.3,3.2,9.2,6.3c1.6,2.2,2.2,5.1,2.2,8.2c0,3.2-1,6.3-2.5,9.5c-1.6,3.2-4.4,6.7-7.9,9.5c-3.5,3.2-7.9,5.7-13.6,7.9
		c-3.2,1.3-6,1.9-8.6,1.9s-4.8-0.3-6.7-1c-1.9-0.6-3.5-1.6-4.8-2.9s-2.2-2.5-2.9-4.1c-2.5,3.2-4.1,6-5.4,8.9
		C560.8,95.7,560.8,97.9,562.1,99.5L562.1,99.5z M597.5,64.3c-0.6-1-1.9-1.3-3.5-1.3c-1.6,0.3-3.5,0.6-5.4,1.6
		c-1.9,1-4.1,2.2-6.3,4.1c-2.2,1.6-4.4,3.5-6.7,5.7c1.6,2.5,3.8,3.8,6.7,3.8c2.9,0,5.7-0.6,8.6-2.2c2.9-1.6,4.8-3.2,6.3-5.4
		C598.8,68.1,598.8,66.2,597.5,64.3z"/>
	<path class="st1" d="M692.6,66.2c-3.8-1-7.9-0.6-12.7,0.3c-4.4,1.3-9.2,3.2-13.3,5.7c-4.4,2.5-8.6,5.4-12.4,8.6
		c-3.8,3.2-7.3,6.3-9.8,9.5c-2.5,3.2-4.1,5.7-5.1,7.9s-0.3,3.8,1.3,4.4s3.5,0.3,6-0.6c2.5-1,5.4-2.2,8.2-4.1c2.9-1.9,6-3.8,9.5-6.3
		c3.2-2.2,6.3-4.8,9.5-7c3.2-2.2,5.7-4.4,8.2-6.3s4.4-3.5,6-4.1c2.9-1.6,5.7-2.9,8.9-3.2c3.2-0.6,5.7-0.6,8.2-0.3
		c2.2,0.3,3.8,1.3,4.8,2.2c1,1,0.6,2.9-1.3,4.8c-1.6,1.9-3.5,4.1-5.4,6.7c-1.9,2.5-3.5,4.8-5.1,7c-1.3,2.2-2.5,4.1-2.9,6
		c-0.6,1.6-0.3,2.9,0.6,3.2s2.2,0.3,4.4-0.3c2.2-0.6,4.4-1.3,7-2.5c2.5-1,5.4-2.5,8.6-3.8c3.2-1.6,6-2.9,8.6-4.4
		c2.9-1.6,5.1-2.9,7.3-3.8c2.2-1.3,3.8-1.9,4.8-2.5c2.5-1.3,4.8-2.2,7-2.2c2.2,0,3.8,0.6,5.1,1.6c1,1.3,1.3,2.9,0.6,4.8
		s-2.9,4.1-6,6.7c-1.9,1.3-5.1,3.5-9.5,6c-4.4,2.5-9.2,5.4-14.9,7.9c-5.4,2.9-11.1,5.1-16.8,7c-5.7,1.9-10.8,2.9-15.2,2.9
		c-3.8,0-6.3-1-7.9-2.5c-1.6-1.6-2.2-3.8-2.2-6.3c0-2.5,0.3-5.1,1.6-7.6c1-2.9,2.5-5.1,4.1-7c-3.8,2.9-7.9,6-12.4,9.5
		c-4.4,3.5-9.2,6.3-14.3,8.9s-9.8,4.1-14.6,5.1c-4.8,1-9.5,0-13.6-2.9c-3.5-2.2-5.7-5.1-6.7-8.2c-1-3.2-0.6-7,0.6-10.8
		c1.3-3.8,3.5-7.9,6.3-12c2.9-4.1,6.7-8.2,10.5-12c4.1-3.8,8.6-7.6,13.3-10.8c4.8-3.5,9.8-6.3,14.9-8.6c5.1-2.2,10.1-4.1,14.9-5.1
		c5.1-1,9.5-1,13.3-0.3c2.9,0.6,4.8,1.9,5.7,4.1c1,2.2,1,4.4,0.3,6.7c-0.6,2.2-1.6,4.1-3.2,5.7C695.8,66.2,694.2,66.9,692.6,66.2
		L692.6,66.2z"/>
	<path class="st1" d="M748,115c-1.6-1.9-2.5-4.4-2.5-7c0-2.9,0.3-5.4,1.3-8.2c1-2.9,2.2-5.4,3.8-7.6c1.6-2.2,2.9-4.1,4.1-5.4
		c-2.2,1.3-4.1,2.9-6,4.1c-1.9,1.3-3.8,2.5-5.7,3.5c-2.9,1.6-5.4,2.5-7.6,2.5c-2.2,0-4.1-0.6-5.1-1.9s-1-2.9-0.3-5.1
		c1-1.9,2.9-4.1,6.3-6.7c1.3-0.6,2.9-1.9,5.4-3.2c2.5-1.6,5.4-3.2,8.6-5.1s6.7-3.8,10.1-6c3.5-2.2,7-4.4,10.5-6.3
		c3.5-2.2,6.3-4.1,9.2-6c2.9-1.9,5.1-3.5,6.7-4.8c2.5-2.2,5.4-3.5,8.6-4.1c3.5-0.6,6.3-1,8.9-0.6s4.4,1.3,5.7,2.9
		c1.3,1.6,0.6,3.5-1.3,6c-1.3,1.6-3.2,3.8-6,6.3s-5.7,5.4-9.2,8.2c-3.5,2.9-6.7,6-10.1,9.2c-3.5,3.2-6.3,6-9.2,8.6
		c-2.5,2.9-4.8,5.1-6,7c-1.6,1.9-1.9,3.5-1,4.4c0.6,1,2.5,0.6,5.1-0.6c2.5-1.3,6.3-3.2,10.1-5.7c3.8-2.5,8.6-5.7,13.3-9.2
		c5.1-3.5,9.8-7.3,14.9-11.1c5.1-3.8,9.8-7.3,14.6-10.8s9.2-6.7,13-9.2c3.5-2.9,7.3-4.8,11.1-5.4s6.7-0.6,9.2,0.3
		c2.5,0.6,3.8,2.2,4.4,4.1c0.3,1.9-1,4.1-3.8,6c-5.7,4.1-10.5,8.6-15.2,13c-4.4,4.4-8.2,8.6-11.1,12.4s-4.8,7.3-6,10.1
		c-1,2.9-1,5.1,0.3,6c1.3,1.3,3.8,1.3,7.3,0.3c3.5-1,7.6-2.2,12-4.1c4.4-1.9,8.9-4.1,13.3-6.3s8.6-4.4,11.4-6c3.2-1.6,6-2.5,8.6-2.5
		s4.1,0.6,5.1,1.9c1,1.3,1,2.9,0,5.1c-1,2.2-3.5,4.4-7,6.7c-2.5,1.6-5.7,3.5-9.5,5.7c-3.8,2.2-7.6,4.4-12,6.7
		c-4.4,2.2-8.9,4.4-13.3,6.3s-8.9,3.5-13.3,4.4c-4.4,1-8.2,1.6-11.7,1.3s-6.3-1.6-8.6-3.8c-2.2-1.9-3.5-4.8-3.8-8.6
		c-0.6-3.8,0-7.9,1.3-12.4c-6,4.4-11.7,8.6-17.7,12.4c-6,3.8-11.7,6.7-16.8,8.9c-5.4,2.2-10.1,3.2-14.3,3.5
		C753.7,119.1,750.6,117.9,748,115L748,115z"/>
	<path class="st1" d="M849.4,146.7c-2.2-1.6-3.8-4.1-4.8-7.6c-0.6-3.5,0-8.6,2.2-14.6c2.2-6,6.3-13.9,12-23.4
		c5.7-9.2,14.3-20.6,25.3-33.9c9.2-10.8,17.4-20.6,25-28.5c7.6-8.2,14.3-14.9,20.3-20c6-5.1,11.1-8.6,15.5-10.5S953,6,955.9,7.6
		c2.5,1.3,3.5,3.5,3.5,6.7s-1.3,6.7-3.5,10.5c-2.2,4.1-5.4,8.2-9.2,13c-3.8,4.8-8.6,9.5-13.6,14.6c-5.1,5.1-10.8,9.8-16.8,14.9
		c-6,5.1-12.4,9.5-18.7,13.9c1.6,1,3.2,1.9,4.1,3.2c1.3,1.3,1.9,3.2,2.5,5.1c1,0.6,3.2,0.6,6,0.6c3.2-0.3,6.3-0.6,9.8-1.3
		c3.5-0.6,7-1.6,10.1-2.5s5.7-1.9,7.3-2.9c2.9-1.6,5.4-2.2,7.6-2.2c2.2,0,3.8,1,4.8,2.2c1,1.3,1,2.9,0,5.1c-1,1.9-2.9,4.1-6,6
		c-2.5,1.6-5.4,2.9-8.9,4.1c-3.5,1.3-7,2.2-10.8,2.9c-3.8,0.6-7.6,1.3-11.4,1.3c-3.8,0.3-7.6,0.3-11.1,0c-1.6,3.5-3.8,7.3-6,11.4
		c-2.5,4.1-5.1,8.2-7.9,12c-2.9,3.8-6,7.6-9.2,11.1c-3.2,3.5-6.7,6-10.1,8.2s-6.7,3.5-10.1,3.8C855.4,149.5,852.3,148.6,849.4,146.7
		L849.4,146.7z M883.3,93.8c-3.2,4.1-6,8.2-8.6,12.4c-2.9,4.1-5.1,7.6-7,11.1c-1.9,3.5-3.2,6-4.1,8.6c-1,2.2-1,3.8-0.3,4.1
		c0.6,0.3,1.9-0.3,3.8-2.2c1.9-1.9,4.4-4.1,7-7.3c2.5-3.2,5.4-6.3,7.9-10.1c2.9-3.8,5.1-7.3,7-10.8C886.5,97.9,884.3,96,883.3,93.8
		L883.3,93.8z"/>
</g>
<g class="st2">
	<path d="M171.1,151.3h1.5v2c0.2-0.3,0.4-0.6,0.7-0.8c0.2-0.3,0.5-0.5,0.8-0.7s0.6-0.4,1-0.5c0.4-0.1,0.8-0.2,1.2-0.2
		c0.6,0,1.2,0.1,1.7,0.3c0.6,0.2,1.1,0.6,1.5,1c0.4,0.4,0.8,1,1.1,1.6c0.3,0.6,0.4,1.4,0.4,2.2v0c0,0.8-0.1,1.5-0.4,2.2
		c-0.3,0.6-0.6,1.2-1.1,1.6c-0.4,0.4-0.9,0.8-1.5,1c-0.6,0.2-1.1,0.4-1.7,0.4c-0.5,0-0.9-0.1-1.3-0.2c-0.4-0.1-0.7-0.3-1-0.5
		c-0.3-0.2-0.6-0.4-0.8-0.7c-0.2-0.3-0.5-0.5-0.7-0.8v4.9h-1.5V151.3z M176.1,160.1c0.5,0,0.9-0.1,1.3-0.3c0.4-0.2,0.8-0.4,1.1-0.7
		s0.6-0.7,0.7-1.2c0.2-0.5,0.3-1,0.3-1.6v0c0-0.6-0.1-1.1-0.3-1.6c-0.2-0.5-0.4-0.9-0.8-1.2c-0.3-0.3-0.7-0.6-1.1-0.8
		c-0.4-0.2-0.9-0.3-1.3-0.3c-0.5,0-0.9,0.1-1.3,0.3s-0.8,0.4-1.1,0.8c-0.3,0.3-0.6,0.7-0.8,1.2c-0.2,0.5-0.3,1-0.3,1.5v0
		c0,0.6,0.1,1.1,0.3,1.6c0.2,0.5,0.5,0.9,0.8,1.2c0.3,0.3,0.7,0.6,1.1,0.8C175.2,160,175.6,160.1,176.1,160.1z"/>
	<path d="M186.7,161.4c-0.5,0-0.9-0.1-1.4-0.2c-0.4-0.1-0.8-0.3-1.2-0.6s-0.6-0.6-0.8-1s-0.3-0.8-0.3-1.3v0c0-0.5,0.1-1,0.3-1.4
		c0.2-0.4,0.5-0.7,0.9-1c0.4-0.3,0.8-0.5,1.3-0.6c0.5-0.1,1.1-0.2,1.7-0.2c0.6,0,1.2,0,1.7,0.1s0.9,0.2,1.4,0.3v-0.3
		c0-0.9-0.3-1.5-0.8-2c-0.5-0.4-1.2-0.7-2.2-0.7c-0.6,0-1.1,0.1-1.6,0.2c-0.5,0.1-0.9,0.3-1.4,0.5l-0.4-1.2c0.5-0.3,1.1-0.5,1.7-0.6
		c0.6-0.2,1.2-0.2,1.9-0.2c1.4,0,2.5,0.4,3.2,1.1c0.7,0.7,1,1.7,1,2.9v6h-1.5v-1.5c-0.3,0.4-0.8,0.8-1.4,1.2
		C188.3,161.2,187.6,161.4,186.7,161.4z M187,160.2c0.5,0,0.9-0.1,1.3-0.2c0.4-0.1,0.7-0.3,1-0.5c0.3-0.2,0.5-0.5,0.7-0.8
		c0.2-0.3,0.3-0.7,0.3-1.1v-0.9c-0.4-0.1-0.8-0.2-1.3-0.3c-0.5-0.1-1-0.1-1.6-0.1c-0.9,0-1.6,0.2-2.1,0.5c-0.5,0.4-0.8,0.8-0.8,1.4
		v0c0,0.3,0.1,0.6,0.2,0.8c0.1,0.2,0.3,0.5,0.5,0.6c0.2,0.2,0.5,0.3,0.8,0.4C186.4,160.1,186.7,160.2,187,160.2z"/>
</g>
<g class="st2">
	<path d="M198.5,161.4c-0.7,0-1.4-0.1-2.2-0.4s-1.4-0.6-1.9-1.1l0.7-1c0.5,0.4,1.1,0.7,1.7,0.9c0.6,0.2,1.2,0.3,1.7,0.3
		c0.6,0,1.1-0.1,1.5-0.4c0.4-0.3,0.6-0.7,0.6-1.1v0c0-0.2-0.1-0.5-0.2-0.6c-0.1-0.2-0.3-0.3-0.5-0.5s-0.5-0.3-0.8-0.4
		c-0.3-0.1-0.6-0.2-0.9-0.3c-0.4-0.1-0.8-0.2-1.2-0.4c-0.4-0.1-0.7-0.3-1-0.5c-0.3-0.2-0.6-0.5-0.8-0.8c-0.2-0.3-0.3-0.7-0.3-1.1v0
		c0-0.4,0.1-0.8,0.2-1.2c0.2-0.3,0.4-0.6,0.7-0.9s0.7-0.4,1.1-0.6c0.4-0.1,0.9-0.2,1.3-0.2c0.6,0,1.2,0.1,1.9,0.3
		c0.6,0.2,1.2,0.5,1.7,0.8l-0.7,1.1c-0.5-0.3-0.9-0.5-1.4-0.7s-1-0.3-1.5-0.3c-0.6,0-1,0.1-1.4,0.4c-0.3,0.3-0.5,0.6-0.5,1v0
		c0,0.2,0.1,0.4,0.2,0.6c0.1,0.2,0.3,0.3,0.6,0.4c0.2,0.1,0.5,0.2,0.8,0.3s0.6,0.2,1,0.3c0.4,0.1,0.8,0.2,1.1,0.4
		c0.4,0.1,0.7,0.3,1,0.5c0.3,0.2,0.6,0.5,0.7,0.8c0.2,0.3,0.3,0.7,0.3,1.1v0c0,0.5-0.1,0.9-0.3,1.2c-0.2,0.4-0.4,0.7-0.7,0.9
		c-0.3,0.3-0.7,0.4-1.1,0.6S199,161.4,198.5,161.4z"/>
</g>
<g class="st2">
	<path d="M214.9,161.4c-0.6,0-1.2-0.1-1.7-0.3c-0.6-0.2-1.1-0.6-1.5-1c-0.4-0.4-0.8-1-1.1-1.6c-0.3-0.6-0.4-1.4-0.4-2.2v0
		c0-0.8,0.1-1.5,0.4-2.2s0.6-1.2,1.1-1.6s0.9-0.8,1.5-1c0.6-0.2,1.1-0.4,1.7-0.4c0.5,0,0.9,0.1,1.3,0.2c0.4,0.1,0.7,0.3,1,0.5
		s0.6,0.4,0.8,0.7c0.2,0.3,0.5,0.5,0.7,0.8v-6h1.5v13.9h-1.5v-2c-0.2,0.3-0.4,0.6-0.7,0.8c-0.2,0.3-0.5,0.5-0.8,0.7
		c-0.3,0.2-0.6,0.4-1,0.5C215.8,161.3,215.4,161.4,214.9,161.4z M215.2,160.1c0.5,0,0.9-0.1,1.3-0.3c0.4-0.2,0.8-0.4,1.1-0.8
		c0.3-0.3,0.6-0.7,0.8-1.2c0.2-0.5,0.3-1,0.3-1.6v0c0-0.6-0.1-1.1-0.3-1.6c-0.2-0.5-0.5-0.9-0.8-1.2c-0.3-0.3-0.7-0.6-1.1-0.8
		s-0.9-0.3-1.3-0.3c-0.5,0-0.9,0.1-1.4,0.3c-0.4,0.2-0.8,0.4-1.1,0.7c-0.3,0.3-0.6,0.7-0.7,1.2c-0.2,0.5-0.3,1-0.3,1.6v0
		c0,0.6,0.1,1.1,0.3,1.6c0.2,0.5,0.4,0.9,0.8,1.2s0.7,0.6,1.1,0.8C214.3,160,214.7,160.1,215.2,160.1z"/>
</g>
<g class="st2">
	<path d="M223,151.5c0.5-0.2,0.8-0.4,1-0.7c0.2-0.3,0.3-0.6,0.2-1h-0.7v-2h1.8v1.7c0,0.8-0.2,1.4-0.5,1.8c-0.3,0.4-0.9,0.7-1.6,0.8
		L223,151.5z"/>
</g>
<g class="st2">
	<path d="M233,161.4c-0.7,0-1.4-0.1-2-0.4c-0.6-0.3-1.2-0.6-1.6-1.1c-0.5-0.5-0.8-1-1.1-1.6c-0.3-0.6-0.4-1.3-0.4-2v0
		c0-0.7,0.1-1.4,0.4-2c0.3-0.6,0.6-1.2,1.1-1.6s1-0.8,1.6-1.1c0.6-0.3,1.3-0.4,2-0.4c0.5,0,0.9,0,1.3,0.1c0.4,0.1,0.7,0.2,1,0.4
		s0.6,0.3,0.9,0.6c0.3,0.2,0.5,0.4,0.7,0.7l-1,1c-0.4-0.4-0.8-0.8-1.3-1c-0.5-0.3-1-0.4-1.7-0.4c-0.5,0-1,0.1-1.4,0.3
		s-0.8,0.5-1.1,0.8s-0.6,0.7-0.7,1.2c-0.2,0.5-0.3,1-0.3,1.5v0c0,0.5,0.1,1,0.3,1.5c0.2,0.5,0.4,0.9,0.8,1.2
		c0.3,0.4,0.7,0.6,1.1,0.8s0.9,0.3,1.4,0.3c0.6,0,1.2-0.1,1.7-0.4c0.5-0.3,0.9-0.6,1.3-1l0.9,0.9c-0.5,0.6-1.1,1-1.7,1.4
		C234.7,161.2,233.9,161.4,233,161.4z"/>
</g>
<g class="st2">
	<path d="M239.6,147.2h1.5v5.8c0.3-0.5,0.8-1,1.3-1.4s1.2-0.6,2.1-0.6c0.6,0,1.1,0.1,1.6,0.3c0.5,0.2,0.9,0.5,1.2,0.8
		s0.6,0.8,0.7,1.2s0.3,1,0.3,1.6v6.1h-1.5v-5.8c0-0.9-0.2-1.6-0.7-2.2c-0.5-0.5-1.1-0.8-2-0.8c-0.4,0-0.8,0.1-1.2,0.2
		c-0.4,0.1-0.7,0.4-0.9,0.6c-0.3,0.3-0.5,0.6-0.6,1c-0.1,0.4-0.2,0.8-0.2,1.3v5.6h-1.5V147.2z"/>
</g>
<g class="st2">
	<path d="M251.6,147.5h1.7v1.6h-1.7V147.5z M251.7,151.3h1.5v9.9h-1.5V151.3z"/>
</g>
<g class="st2">
	<path d="M261.2,161.4c-0.7,0-1.4-0.1-2-0.4c-0.6-0.3-1.2-0.6-1.6-1.1c-0.5-0.5-0.8-1-1.1-1.6c-0.3-0.6-0.4-1.3-0.4-2v0
		c0-0.7,0.1-1.4,0.4-2c0.3-0.6,0.6-1.2,1.1-1.6s1-0.8,1.6-1.1c0.6-0.3,1.3-0.4,2-0.4c0.5,0,0.9,0,1.3,0.1c0.4,0.1,0.7,0.2,1,0.4
		s0.6,0.3,0.9,0.6c0.3,0.2,0.5,0.4,0.7,0.7l-1,1c-0.4-0.4-0.8-0.8-1.3-1c-0.5-0.3-1-0.4-1.7-0.4c-0.5,0-1,0.1-1.4,0.3
		s-0.8,0.5-1.1,0.8s-0.6,0.7-0.7,1.2c-0.2,0.5-0.3,1-0.3,1.5v0c0,0.5,0.1,1,0.3,1.5c0.2,0.5,0.4,0.9,0.8,1.2
		c0.3,0.4,0.7,0.6,1.1,0.8s0.9,0.3,1.4,0.3c0.6,0,1.2-0.1,1.7-0.4c0.5-0.3,0.9-0.6,1.3-1l0.9,0.9c-0.5,0.6-1.1,1-1.7,1.4
		C262.9,161.2,262.1,161.4,261.2,161.4z"/>
</g>
<g class="st2">
	<path d="M267.9,147.2h1.5v5.8c0.3-0.5,0.8-1,1.3-1.4s1.2-0.6,2.1-0.6c0.6,0,1.1,0.1,1.6,0.3c0.5,0.2,0.9,0.5,1.2,0.8
		s0.6,0.8,0.7,1.2s0.3,1,0.3,1.6v6.1H275v-5.8c0-0.9-0.2-1.6-0.7-2.2c-0.5-0.5-1.1-0.8-2-0.8c-0.4,0-0.8,0.1-1.2,0.2
		c-0.4,0.1-0.7,0.4-0.9,0.6c-0.3,0.3-0.5,0.6-0.6,1c-0.1,0.4-0.2,0.8-0.2,1.3v5.6h-1.5V147.2z"/>
</g>
<g class="st2">
	<path d="M279.8,147.5h1.7v1.6h-1.7V147.5z M279.9,151.3h1.5v9.9h-1.5V151.3z"/>
</g>
<g class="st2">
	<path d="M291.8,156.8c0.1,0.5,0.2,1,0.4,1.4c0.2,0.4,0.5,0.8,0.8,1c0.3,0.3,0.7,0.5,1.1,0.6c0.4,0.1,0.8,0.2,1.2,0.2
		c0.7,0,1.3-0.1,1.8-0.4c0.5-0.3,0.9-0.6,1.3-1l0.9,0.8c-0.5,0.6-1.1,1-1.7,1.3c-0.6,0.3-1.4,0.5-2.4,0.5c-0.7,0-1.3-0.1-1.9-0.4
		c-0.6-0.2-1.1-0.6-1.6-1c-0.4-0.5-0.8-1-1.1-1.6c-0.3-0.6-0.4-1.3-0.4-2.1c0-0.7,0.1-1.4,0.4-2s0.6-1.2,1-1.6
		c0.4-0.5,0.9-0.8,1.5-1.1c0.6-0.3,1.2-0.4,1.9-0.4c0.7,0,1.4,0.1,1.9,0.4c0.6,0.3,1.1,0.6,1.5,1.1c0.4,0.5,0.7,1,0.9,1.7
		c0.2,0.6,0.3,1.3,0.3,2c0,0.1,0,0.1,0,0.2c0,0.1,0,0.2,0,0.3H291.8z M298.2,155.6c0-0.4-0.1-0.9-0.3-1.3c-0.2-0.4-0.4-0.8-0.6-1.1
		c-0.3-0.3-0.6-0.5-1-0.7c-0.4-0.2-0.8-0.3-1.3-0.3c-0.4,0-0.8,0.1-1.2,0.2c-0.4,0.2-0.7,0.4-1,0.7c-0.3,0.3-0.5,0.6-0.7,1.1
		c-0.2,0.4-0.3,0.8-0.4,1.3H298.2z"/>
</g>
<g class="st2">
	<path d="M302.4,147.5h1.7v1.6h-1.7V147.5z M302.5,151.3h1.5v9.9h-1.5V151.3z"/>
</g>
<g class="st2">
	<path d="M307.6,151.3h1.5v1.7c0.3-0.5,0.8-1,1.3-1.4s1.2-0.6,2.1-0.6c0.6,0,1.1,0.1,1.6,0.3c0.5,0.2,0.9,0.5,1.2,0.8
		s0.6,0.8,0.7,1.2s0.3,1,0.3,1.6v6.1h-1.5v-5.8c0-0.9-0.2-1.6-0.7-2.2c-0.5-0.5-1.1-0.8-2-0.8c-0.4,0-0.8,0.1-1.2,0.2
		c-0.4,0.1-0.7,0.4-0.9,0.6c-0.3,0.3-0.5,0.6-0.6,1c-0.1,0.4-0.2,0.8-0.2,1.3v5.6h-1.5V151.3z"/>
</g>
<g class="st2">
	<path d="M322.9,161.3c-0.4,0-0.8-0.1-1.1-0.2c-0.3-0.1-0.6-0.3-0.9-0.5c-0.2-0.2-0.4-0.5-0.6-0.9c-0.1-0.4-0.2-0.8-0.2-1.3v-6h-1.4
		v-1.3h1.4v-3h1.5v3h3.1v1.3h-3.1v5.7c0,0.6,0.2,1,0.5,1.3c0.3,0.2,0.7,0.4,1.2,0.4c0.3,0,0.5,0,0.7-0.1s0.5-0.1,0.7-0.3v1.3
		c-0.3,0.1-0.5,0.2-0.8,0.3C323.5,161.3,323.2,161.3,322.9,161.3z"/>
</g>
<g class="st2">
	<path d="M327.5,151.3h1.5v2.6c0.2-0.4,0.4-0.8,0.7-1.1s0.6-0.6,0.9-0.9c0.3-0.2,0.7-0.4,1.1-0.6c0.4-0.1,0.8-0.2,1.3-0.2v1.6h-0.1
		c-0.5,0-1,0.1-1.5,0.3s-0.9,0.5-1.2,0.9c-0.4,0.4-0.6,0.9-0.8,1.4c-0.2,0.6-0.3,1.2-0.3,2v3.9h-1.5V151.3z"/>
</g>
<g class="st2">
	<path d="M336.3,156.8c0.1,0.5,0.2,1,0.4,1.4c0.2,0.4,0.5,0.8,0.8,1c0.3,0.3,0.7,0.5,1.1,0.6c0.4,0.1,0.8,0.2,1.2,0.2
		c0.7,0,1.3-0.1,1.8-0.4c0.5-0.3,0.9-0.6,1.3-1l0.9,0.8c-0.5,0.6-1.1,1-1.7,1.3c-0.6,0.3-1.4,0.5-2.4,0.5c-0.7,0-1.3-0.1-1.9-0.4
		c-0.6-0.2-1.1-0.6-1.6-1c-0.4-0.5-0.8-1-1.1-1.6c-0.3-0.6-0.4-1.3-0.4-2.1c0-0.7,0.1-1.4,0.4-2s0.6-1.2,1-1.6
		c0.4-0.5,0.9-0.8,1.5-1.1c0.6-0.3,1.2-0.4,1.9-0.4c0.7,0,1.4,0.1,1.9,0.4c0.6,0.3,1.1,0.6,1.5,1.1c0.4,0.5,0.7,1,0.9,1.7
		c0.2,0.6,0.3,1.3,0.3,2c0,0.1,0,0.1,0,0.2c0,0.1,0,0.2,0,0.3H336.3z M342.6,155.6c0-0.4-0.1-0.9-0.3-1.3c-0.2-0.4-0.4-0.8-0.6-1.1
		c-0.3-0.3-0.6-0.5-1-0.7c-0.4-0.2-0.8-0.3-1.3-0.3c-0.4,0-0.8,0.1-1.2,0.2c-0.4,0.2-0.7,0.4-1,0.7c-0.3,0.3-0.5,0.6-0.7,1.1
		c-0.2,0.4-0.3,0.8-0.4,1.3H342.6z"/>
</g>
<g class="st2">
	<path d="M352.8,151.3h1.5v1.7c0.3-0.5,0.8-1,1.3-1.4s1.2-0.6,2.1-0.6c0.6,0,1.1,0.1,1.6,0.3c0.5,0.2,0.9,0.5,1.2,0.8
		s0.6,0.8,0.7,1.2s0.3,1,0.3,1.6v6.1h-1.5v-5.8c0-0.9-0.2-1.6-0.7-2.2c-0.5-0.5-1.1-0.8-2-0.8c-0.4,0-0.8,0.1-1.2,0.2
		c-0.4,0.1-0.7,0.4-0.9,0.6c-0.3,0.3-0.5,0.6-0.6,1c-0.1,0.4-0.2,0.8-0.2,1.3v5.6h-1.5V151.3z"/>
</g>
<g class="st2">
	<path d="M369.2,161.4c-0.7,0-1.4-0.1-2-0.4c-0.6-0.3-1.2-0.6-1.6-1.1c-0.5-0.5-0.8-1-1.1-1.6c-0.3-0.6-0.4-1.3-0.4-2v0
		c0-0.7,0.1-1.4,0.4-2c0.3-0.6,0.6-1.2,1.1-1.6s1-0.8,1.6-1.1c0.6-0.3,1.3-0.4,2.1-0.4c0.7,0,1.4,0.1,2.1,0.4
		c0.6,0.3,1.2,0.6,1.6,1.1c0.5,0.5,0.8,1,1.1,1.6c0.3,0.6,0.4,1.3,0.4,2v0c0,0.7-0.1,1.4-0.4,2c-0.3,0.6-0.6,1.2-1.1,1.6
		c-0.5,0.5-1,0.8-1.6,1.1S370,161.4,369.2,161.4z M369.3,160.1c0.5,0,1-0.1,1.5-0.3s0.8-0.5,1.1-0.8c0.3-0.3,0.6-0.7,0.7-1.2
		c0.2-0.5,0.3-0.9,0.3-1.5v0c0-0.5-0.1-1-0.3-1.5c-0.2-0.5-0.4-0.9-0.8-1.2c-0.3-0.3-0.7-0.6-1.2-0.8c-0.4-0.2-0.9-0.3-1.5-0.3
		c-0.5,0-1,0.1-1.5,0.3c-0.4,0.2-0.8,0.5-1.1,0.8c-0.3,0.3-0.6,0.7-0.7,1.2c-0.2,0.5-0.3,1-0.3,1.5v0c0,0.5,0.1,1,0.3,1.5
		c0.2,0.5,0.4,0.9,0.8,1.2c0.3,0.3,0.7,0.6,1.2,0.8C368.3,160,368.7,160.1,369.3,160.1z"/>
</g>
<g class="st2">
	<path d="M380.9,161.4c-0.6,0-1.1-0.1-1.6-0.3c-0.5-0.2-0.9-0.5-1.2-0.8c-0.3-0.4-0.6-0.8-0.7-1.2c-0.2-0.5-0.3-1-0.3-1.6v-6.1h1.5
		v5.8c0,0.9,0.2,1.6,0.7,2.2s1.1,0.8,2,0.8c0.4,0,0.8-0.1,1.2-0.2c0.4-0.1,0.7-0.4,0.9-0.6c0.3-0.3,0.5-0.6,0.6-1
		c0.2-0.4,0.2-0.8,0.2-1.3v-5.6h1.5v9.9h-1.5v-1.7c-0.3,0.5-0.8,1-1.3,1.4S381.7,161.4,380.9,161.4z"/>
</g>
<g class="st2">
	<path d="M392.4,161.4c-0.7,0-1.4-0.1-2.2-0.4s-1.4-0.6-1.9-1.1l0.7-1c0.5,0.4,1.1,0.7,1.7,0.9c0.6,0.2,1.2,0.3,1.7,0.3
		c0.6,0,1.1-0.1,1.5-0.4c0.4-0.3,0.6-0.7,0.6-1.1v0c0-0.2-0.1-0.5-0.2-0.6c-0.1-0.2-0.3-0.3-0.5-0.5s-0.5-0.3-0.8-0.4
		c-0.3-0.1-0.6-0.2-0.9-0.3c-0.4-0.1-0.8-0.2-1.2-0.4c-0.4-0.1-0.7-0.3-1-0.5c-0.3-0.2-0.6-0.5-0.8-0.8c-0.2-0.3-0.3-0.7-0.3-1.1v0
		c0-0.4,0.1-0.8,0.2-1.2c0.2-0.3,0.4-0.6,0.7-0.9s0.7-0.4,1.1-0.6c0.4-0.1,0.9-0.2,1.3-0.2c0.6,0,1.2,0.1,1.9,0.3
		c0.6,0.2,1.2,0.5,1.7,0.8l-0.7,1.1c-0.5-0.3-0.9-0.5-1.4-0.7s-1-0.3-1.5-0.3c-0.6,0-1,0.1-1.4,0.4c-0.3,0.3-0.5,0.6-0.5,1v0
		c0,0.2,0.1,0.4,0.2,0.6c0.1,0.2,0.3,0.3,0.6,0.4c0.2,0.1,0.5,0.2,0.8,0.3s0.6,0.2,1,0.3c0.4,0.1,0.8,0.2,1.1,0.4
		c0.4,0.1,0.7,0.3,1,0.5c0.3,0.2,0.6,0.5,0.7,0.8c0.2,0.3,0.3,0.7,0.3,1.1v0c0,0.5-0.1,0.9-0.3,1.2c-0.2,0.4-0.4,0.7-0.7,0.9
		c-0.3,0.3-0.7,0.4-1.1,0.6S392.9,161.4,392.4,161.4z"/>
</g>
<g class="st2">
	<path d="M404.8,147.2h1.5v5.8c0.3-0.5,0.8-1,1.3-1.4s1.2-0.6,2.1-0.6c0.6,0,1.1,0.1,1.6,0.3c0.5,0.2,0.9,0.5,1.2,0.8
		s0.6,0.8,0.7,1.2s0.3,1,0.3,1.6v6.1h-1.5v-5.8c0-0.9-0.2-1.6-0.7-2.2c-0.5-0.5-1.1-0.8-2-0.8c-0.4,0-0.8,0.1-1.2,0.2
		c-0.4,0.1-0.7,0.4-0.9,0.6c-0.3,0.3-0.5,0.6-0.6,1c-0.1,0.4-0.2,0.8-0.2,1.3v5.6h-1.5V147.2z"/>
</g>
<g class="st2">
	<path d="M417.6,156.8c0.1,0.5,0.2,1,0.4,1.4c0.2,0.4,0.5,0.8,0.8,1c0.3,0.3,0.7,0.5,1.1,0.6c0.4,0.1,0.8,0.2,1.2,0.2
		c0.7,0,1.3-0.1,1.8-0.4c0.5-0.3,0.9-0.6,1.3-1l0.9,0.8c-0.5,0.6-1.1,1-1.7,1.3c-0.6,0.3-1.4,0.5-2.4,0.5c-0.7,0-1.3-0.1-1.9-0.4
		c-0.6-0.2-1.1-0.6-1.6-1c-0.4-0.5-0.8-1-1.1-1.6c-0.3-0.6-0.4-1.3-0.4-2.1c0-0.7,0.1-1.4,0.4-2s0.6-1.2,1-1.6
		c0.4-0.5,0.9-0.8,1.5-1.1c0.6-0.3,1.2-0.4,1.9-0.4c0.7,0,1.4,0.1,1.9,0.4c0.6,0.3,1.1,0.6,1.5,1.1c0.4,0.5,0.7,1,0.9,1.7
		c0.2,0.6,0.3,1.3,0.3,2c0,0.1,0,0.1,0,0.2c0,0.1,0,0.2,0,0.3H417.6z M424,155.6c0-0.4-0.1-0.9-0.3-1.3c-0.2-0.4-0.4-0.8-0.6-1.1
		c-0.3-0.3-0.6-0.5-1-0.7c-0.4-0.2-0.8-0.3-1.3-0.3c-0.4,0-0.8,0.1-1.2,0.2c-0.4,0.2-0.7,0.4-1,0.7c-0.3,0.3-0.5,0.6-0.7,1.1
		c-0.2,0.4-0.3,0.8-0.4,1.3H424z"/>
</g>
<g class="st2">
	<path d="M428.3,147.5h1.7v1.6h-1.7V147.5z M428.4,151.3h1.5v9.9h-1.5V151.3z"/>
</g>
<g class="st2">
	<path d="M433.4,151.3h1.5v1.7c0.3-0.5,0.8-1,1.3-1.4s1.2-0.6,2.1-0.6c0.6,0,1.1,0.1,1.6,0.3c0.5,0.2,0.9,0.5,1.2,0.8
		s0.6,0.8,0.7,1.2s0.3,1,0.3,1.6v6.1h-1.5v-5.8c0-0.9-0.2-1.6-0.7-2.2c-0.5-0.5-1.1-0.8-2-0.8c-0.4,0-0.8,0.1-1.2,0.2
		c-0.4,0.1-0.7,0.4-0.9,0.6c-0.3,0.3-0.5,0.6-0.6,1c-0.1,0.4-0.2,0.8-0.2,1.3v5.6h-1.5V151.3z"/>
</g>
<g class="st2">
	<path d="M456.5,161.4c-0.5,0-0.9-0.1-1.3-0.2c-0.4-0.1-0.7-0.3-1-0.5c-0.3-0.2-0.6-0.4-0.8-0.7c-0.2-0.3-0.5-0.5-0.7-0.8v1.9h-1.5
		v-13.9h1.5v6c0.2-0.3,0.4-0.6,0.7-0.8c0.2-0.3,0.5-0.5,0.8-0.7s0.6-0.4,1-0.5c0.4-0.1,0.8-0.2,1.2-0.2c0.6,0,1.2,0.1,1.7,0.3
		c0.6,0.2,1.1,0.6,1.5,1c0.4,0.4,0.8,1,1.1,1.6c0.3,0.6,0.4,1.4,0.4,2.2v0c0,0.8-0.1,1.5-0.4,2.2c-0.3,0.6-0.6,1.2-1.1,1.6
		c-0.4,0.4-0.9,0.8-1.5,1C457.7,161.3,457.1,161.4,456.5,161.4z M456.3,160.1c0.5,0,0.9-0.1,1.3-0.3c0.4-0.2,0.8-0.4,1.1-0.7
		s0.6-0.7,0.7-1.2c0.2-0.5,0.3-1,0.3-1.6v0c0-0.6-0.1-1.1-0.3-1.6c-0.2-0.5-0.4-0.9-0.8-1.2c-0.3-0.3-0.7-0.6-1.1-0.8
		c-0.4-0.2-0.9-0.3-1.3-0.3c-0.5,0-0.9,0.1-1.3,0.3s-0.8,0.4-1.1,0.8c-0.3,0.3-0.6,0.7-0.8,1.2c-0.2,0.5-0.3,1-0.3,1.5v0
		c0,0.6,0.1,1.1,0.3,1.6c0.2,0.5,0.5,0.9,0.8,1.2c0.3,0.3,0.7,0.6,1.1,0.8C455.4,160,455.8,160.1,456.3,160.1z"/>
</g>
<g class="st2">
	<path d="M464.2,147.5h1.7v1.6h-1.7V147.5z M464.3,151.3h1.5v9.9h-1.5V151.3z"/>
</g>
<g class="st2">
	<path d="M469.5,147.2h1.5v13.9h-1.5V147.2z"/>
</g>
<g class="st2">
	<path d="M479.1,161.4c-0.7,0-1.4-0.1-2-0.4c-0.6-0.3-1.2-0.6-1.6-1.1c-0.5-0.5-0.8-1-1.1-1.6c-0.3-0.6-0.4-1.3-0.4-2v0
		c0-0.7,0.1-1.4,0.4-2c0.3-0.6,0.6-1.2,1.1-1.6s1-0.8,1.6-1.1c0.6-0.3,1.3-0.4,2.1-0.4c0.7,0,1.4,0.1,2.1,0.4
		c0.6,0.3,1.2,0.6,1.6,1.1c0.5,0.5,0.8,1,1.1,1.6c0.3,0.6,0.4,1.3,0.4,2v0c0,0.7-0.1,1.4-0.4,2c-0.3,0.6-0.6,1.2-1.1,1.6
		c-0.5,0.5-1,0.8-1.6,1.1S479.8,161.4,479.1,161.4z M479.1,160.1c0.5,0,1-0.1,1.5-0.3s0.8-0.5,1.1-0.8c0.3-0.3,0.6-0.7,0.7-1.2
		c0.2-0.5,0.3-0.9,0.3-1.5v0c0-0.5-0.1-1-0.3-1.5c-0.2-0.5-0.4-0.9-0.8-1.2c-0.3-0.3-0.7-0.6-1.2-0.8c-0.4-0.2-0.9-0.3-1.5-0.3
		c-0.5,0-1,0.1-1.5,0.3c-0.4,0.2-0.8,0.5-1.1,0.8c-0.3,0.3-0.6,0.7-0.7,1.2c-0.2,0.5-0.3,1-0.3,1.5v0c0,0.5,0.1,1,0.3,1.5
		c0.2,0.5,0.4,0.9,0.8,1.2c0.3,0.3,0.7,0.6,1.2,0.8C478.1,160,478.6,160.1,479.1,160.1z"/>
</g>
<g class="st2">
	<path d="M490.7,161.4c-0.6,0-1.1-0.1-1.6-0.3c-0.5-0.2-0.9-0.5-1.2-0.8c-0.3-0.4-0.6-0.8-0.7-1.2s-0.3-1-0.3-1.6v-6.1h1.5v5.8
		c0,0.9,0.2,1.6,0.7,2.2s1.1,0.8,2,0.8c0.4,0,0.8-0.1,1.2-0.2c0.4-0.1,0.7-0.4,0.9-0.6c0.3-0.3,0.5-0.6,0.6-1
		c0.2-0.4,0.2-0.8,0.2-1.3v-5.6h1.5v9.9h-1.5v-1.7c-0.3,0.5-0.8,1-1.3,1.4S491.6,161.4,490.7,161.4z"/>
</g>
<g class="st2">
	<path d="M502.3,161.3c-0.4,0-0.8-0.1-1.1-0.2c-0.3-0.1-0.6-0.3-0.9-0.5c-0.2-0.2-0.4-0.5-0.6-0.9c-0.1-0.4-0.2-0.8-0.2-1.3v-6h-1.4
		v-1.3h1.4v-3h1.5v3h3.1v1.3H501v5.7c0,0.6,0.2,1,0.5,1.3c0.3,0.2,0.7,0.4,1.2,0.4c0.3,0,0.5,0,0.7-0.1c0.2,0,0.5-0.1,0.7-0.3v1.3
		c-0.3,0.1-0.5,0.2-0.8,0.3C503,161.3,502.7,161.3,502.3,161.3z"/>
</g>
<g class="st2">
	<path d="M507.8,156.8c0.1,0.5,0.2,1,0.4,1.4c0.2,0.4,0.5,0.8,0.8,1c0.3,0.3,0.7,0.5,1.1,0.6c0.4,0.1,0.8,0.2,1.2,0.2
		c0.7,0,1.3-0.1,1.8-0.4c0.5-0.3,0.9-0.6,1.3-1l0.9,0.8c-0.5,0.6-1.1,1-1.7,1.3c-0.6,0.3-1.4,0.5-2.4,0.5c-0.7,0-1.3-0.1-1.9-0.4
		s-1.1-0.6-1.6-1s-0.8-1-1.1-1.6c-0.3-0.6-0.4-1.3-0.4-2.1c0-0.7,0.1-1.4,0.4-2s0.6-1.2,1-1.6c0.4-0.5,0.9-0.8,1.5-1.1
		c0.6-0.3,1.2-0.4,1.9-0.4c0.7,0,1.4,0.1,1.9,0.4s1.1,0.6,1.5,1.1s0.7,1,0.9,1.7s0.3,1.3,0.3,2c0,0.1,0,0.1,0,0.2c0,0.1,0,0.2,0,0.3
		H507.8z M514.2,155.6c0-0.4-0.1-0.9-0.3-1.3c-0.2-0.4-0.4-0.8-0.6-1.1c-0.3-0.3-0.6-0.5-1-0.7s-0.8-0.3-1.3-0.3
		c-0.4,0-0.8,0.1-1.2,0.2c-0.4,0.2-0.7,0.4-1,0.7c-0.3,0.3-0.5,0.6-0.7,1.1s-0.3,0.8-0.4,1.3H514.2z"/>
</g>
<g class="st2">
	<path d="M524.4,159.2h1.8v2h-1.8V159.2z M524.4,148.9v-1.1h1.7v1.1l-0.5,8.5h-0.8L524.4,148.9z"/>
</g>
</svg>
